<?xml version="1.0" encoding="UTF-8" standalone="no"?>
<!-- Created with Inkscape (http://www.inkscape.org/) -->

<svg
   xmlns:dc="http://purl.org/dc/elements/1.1/"
   xmlns:cc="http://creativecommons.org/ns#"
   xmlns:rdf="http://www.w3.org/1999/02/22-rdf-syntax-ns#"
   xmlns:svg="http://www.w3.org/2000/svg"
   xmlns="http://www.w3.org/2000/svg"
   xmlns:sodipodi="http://sodipodi.sourceforge.net/DTD/sodipodi-0.dtd"
   xmlns:inkscape="http://www.inkscape.org/namespaces/inkscape"
   width="24"
   height="24"
   viewBox="0 0 24 24"
   id="svg3412"
   version="1.1"
   inkscape:version="0.91 r13725"
   sodipodi:docname="brain.svg">
  <defs
     id="defs3414" />
  <sodipodi:namedview
     id="base"
     pagecolor="#ffffff"
     bordercolor="#666666"
     borderopacity="1.0"
     inkscape:pageopacity="0.0"
     inkscape:pageshadow="2"
     inkscape:zoom="7.9195959"
     inkscape:cx="-25.001804"
     inkscape:cy="-21.421357"
     inkscape:document-units="px"
     inkscape:current-layer="layer1"
     showgrid="false"
     inkscape:window-width="1916"
     inkscape:window-height="1155"
     inkscape:window-x="4"
     inkscape:window-y="357"
     inkscape:window-maximized="1"
     units="px" />
  <metadata
     id="metadata3417">
    <rdf:RDF>
      <cc:Work
         rdf:about="">
        <dc:format>image/svg+xml</dc:format>
        <dc:type
           rdf:resource="http://purl.org/dc/dcmitype/StillImage" />
        <dc:title></dc:title>
      </cc:Work>
    </rdf:RDF>
  </metadata>
  <g
     inkscape:label="Layer 1"
     inkscape:groupmode="layer"
     id="layer1"
     transform="translate(0,-1028.3622)">
    <path
       style="fill:#000000"
       d="m 9.1301675,1052.3377 c -1.12446,-0.1275 -2.11134,-0.7782 -2.66818,-1.7594 -0.0675,-0.1188 -0.13669,-0.2215 -0.15386,-0.2281 -0.0172,-0.01 -0.0822,-0.012 -0.1446,-0.012 -0.0624,-10e-5 -0.22136,-0.017 -0.35336,-0.038 -1.62804,-0.257 -2.95657,-1.3478 -3.53372,-2.9016 -0.26423,-0.7113 -0.34,-1.5607 -0.20712,-2.3219 l 0.0277,-0.1589 -0.3155,-0.3146 c -0.39654,-0.3954 -0.65039,-0.714 -0.90995998,-1.1421 -0.71025,-1.1716 -0.99834998,-2.56 -0.81020998,-3.9045 0.11633998,-0.8315 0.41051998,-1.6328 0.86468998,-2.3553 l 0.11776998,-0.1874 -0.0248,-0.2803 c -0.0872,-0.9846 0.16842,-2.064 0.69755,-2.945 0.68656,-1.143 1.83221,-1.9824 3.12597,-2.2901 l 0.27236,-0.065 0.0248,-0.1125 c 0.0328,-0.1494 0.18623,-0.5535 0.28484,-0.7505 0.19167,-0.3829 0.4288,-0.7077 0.75442,-1.0333 0.62039,-0.6204 1.33741,-0.9856 2.22125,-1.1313 0.28927,-0.048 0.9107303,-0.048 1.2000003,0 0.8634702,0.1424 1.5657402,0.4941 2.1931202,1.0983 l 0.20688,0.1993 0.20688,-0.1993 c 0.62738,-0.6042 1.32965,-0.9559 2.19312,-1.0983 0.28927,-0.048 0.91073,-0.048 1.2,0 0.55925,0.092 1.06092,0.2776 1.50816,0.5575 0.50732,0.3174 0.96954,0.7796 1.28705,1.2871 0.19199,0.3069 0.40527,0.7975 0.4653,1.0705 l 0.0248,0.1125 0.27236,0.065 c 0.89305,0.2124 1.71553,0.6737 2.37219,1.3303 1.03187,1.0319 1.57613,2.4962 1.45133,3.9048 l -0.0248,0.2803 0.11777,0.1874 c 1.20742,1.9209 1.22833,4.3235 0.0545,6.2598 -0.25982,0.4285 -0.51342,0.7467 -0.9113,1.1434 l -0.31683,0.3159 0.0422,0.2541 c 0.0585,0.3522 0.0635,0.9942 0.0103,1.3241 -0.27125,1.6825 -1.34246,3.0004 -2.91292,3.5838 -0.36622,0.136 -0.92719,0.2554 -1.20336,0.256 -0.0623,2e-4 -0.12742,0.01 -0.1446,0.012 -0.0172,0.01 -0.0864,0.1092 -0.15386,0.228 -0.72376,1.2753 -2.15683,1.9647 -3.59818,1.731 -0.6781,-0.1099 -1.25497,-0.3887 -1.795,-0.8674 l -0.145,-0.1285 -0.145,0.1285 c -0.53966,0.4784 -1.11085,0.7546 -1.795,0.8681 -0.2177802,0.036 -0.7234102,0.051 -0.9300005,0.028 z m 0.7400003,-2.0264 c 0.4571402,-0.1288 0.8479302,-0.4673 1.0122102,-0.8767 0.116,-0.2891 0.10662,0.1846 0.11271,-5.6925 l 0.006,-5.3862 -0.12525,0.089 c -0.7423,0.5272 -1.6772902,0.8507 -2.6171005,0.9054 l -0.23185,0.014 -0.0132,-0.5377 c -0.007,-0.2958 -0.019,-0.7456 -0.0261,-0.9996 l -0.0128,-0.4618 0.2064,-0.014 c 0.74724,-0.049 1.4314903,-0.3625 1.9537405,-0.8953 0.41924,-0.4277 0.67502,-0.9072 0.80947,-1.5176 0.0458,-0.2078 0.0463,-0.2238 0.0463,-1.54 0,-1.5353 0.004,-1.4967 -0.19896,-1.91 -0.20421,-0.4157 -0.50527,-0.7168 -0.9210402,-0.921 -0.31285,-0.1537 -0.50559,-0.1974 -0.8700003,-0.1974 -0.36441,0 -0.55715,0.044 -0.87,0.1974 -0.41582,0.2042 -0.7169,0.5053 -0.921,0.921 -0.1582,0.3223 -0.18502,0.4581 -0.21924,1.11 -0.0159,0.3025 -0.0313,0.5905 -0.0343,0.64 l -0.005,0.09 -0.66,0.023 c -0.53566,0.018 -0.69956,0.031 -0.87,0.066 -0.59433,0.1231 -1.08779,0.3855 -1.51758,0.8067 -0.54386,0.5332 -0.85816,1.2326 -0.89649,1.995 -0.0137,0.2731 0.009,0.4822 0.10366,0.9402 l 0.0676,0.3283 -0.23591,0.3204 c -0.3068,0.4167 -0.40322,0.5692 -0.54391,0.8604 -0.52613,1.0891 -0.5258,2.3216 9.3e-4,3.42 0.1219,0.2542 0.37899,0.6533 0.52822,0.82 l 0.0895,0.1 0.11679,-0.13 c 0.60212,-0.6702 1.37153,-1.1435 2.22592,-1.3692 0.10382,-0.027 0.193,-0.046 0.19818,-0.04 0.0135,0.014 0.48158,1.9178 0.47343,1.926 -0.004,0 -0.0684,0.023 -0.14381,0.042 -0.88654,0.228 -1.57372,0.9155 -1.79891,1.7996 -0.10337,0.4059 -0.10588,0.8556 -0.007,1.2421 0.22396,0.8745 0.92355,1.5735 1.80178,1.8002 0.0839,0.022 0.26101,0.05 0.39362,0.063 0.23889,0.024 0.24709,0.023 0.89187,-0.065 l 0.65076,-0.09 0.0129,0.061 c 0.007,0.033 0.0659,0.2946 0.1307,0.5806 0.10154,0.448 0.13048,0.5454 0.20922,0.7041 0.21514,0.4335 0.61619,0.7229 1.1284503,0.8142 0.0924,0.016 0.46903,-0.01 0.57,-0.035 z m 5.0344202,-0.011 c 0.40242,-0.1176 0.74073,-0.3989 0.92403,-0.7683 0.0787,-0.1587 0.10768,-0.2561 0.20922,-0.7041 0.0648,-0.286 0.12363,-0.5473 0.1307,-0.5806 l 0.0129,-0.061 0.65076,0.09 c 0.64478,0.089 0.65298,0.089 0.89187,0.065 0.13261,-0.013 0.30974,-0.042 0.39362,-0.063 0.89186,-0.2302 1.58616,-0.9345 1.81407,-1.8402 0.0562,-0.2233 0.0525,-0.5448 -0.008,-0.74 -0.26233,-0.8406 -1.04484,-1.3892 -1.90167,-1.3331 -0.35626,0.023 -0.6624,0.1323 -0.9626,0.3426 l -0.15803,0.1107 -0.10544,-0.134 c -0.058,-0.074 -0.33287,-0.4271 -0.61084,-0.7852 l -0.50539,-0.651 0.0654,-0.056 c 0.20134,-0.1719 0.59596,-0.4044 0.90308,-0.5323 1.01855,-0.4239 2.16779,-0.3921 3.16714,0.088 0.24371,0.117 0.61749,0.3549 0.77157,0.4911 l 0.0964,0.085 0.11033,-0.1079 c 0.30917,-0.3025 0.61957,-0.7356 0.80822,-1.1279 0.52702,-1.0959 0.52747,-2.3308 10e-4,-3.42 -0.14069,-0.2912 -0.23711,-0.4438 -0.54391,-0.8604 l -0.23591,-0.3204 0.0676,-0.3283 c 0.0944,-0.458 0.1174,-0.6671 0.10366,-0.9403 -0.0694,-1.3801 -1.05097,-2.5193 -2.41407,-2.8016 -0.17044,-0.035 -0.33434,-0.048 -0.87,-0.066 l -0.66,-0.023 -0.005,-0.09 c -0.003,-0.049 -0.0184,-0.3375 -0.0343,-0.64 -0.0342,-0.652 -0.061,-0.7878 -0.21924,-1.11 -0.2041,-0.4157 -0.50518,-0.7168 -0.921,-0.921 -0.31285,-0.1537 -0.50559,-0.1974 -0.87,-0.1974 -0.36441,0 -0.55715,0.044 -0.87,0.1974 -0.41577,0.2042 -0.71683,0.5052 -0.92104,0.921 -0.20298,0.4133 -0.19896,0.3747 -0.19896,1.91 0,1.3161 4.8e-4,1.3322 0.0463,1.54 0.13445,0.6104 0.39023,1.0899 0.80947,1.5176 0.52225,0.5327 1.2065,0.8463 1.95374,0.8953 l 0.2064,0.014 -0.0129,0.4618 c -0.007,0.254 -0.0188,0.7038 -0.0261,0.9995 l -0.0132,0.5378 -0.23184,-0.014 c -0.93981,-0.055 -1.8748,-0.3782 -2.6171,-0.9055 l -0.12525,-0.089 0.006,5.3862 c 0.006,5.8771 -0.003,5.4034 0.11271,5.6925 0.16853,0.42 0.61265,0.7942 1.04703,0.882 0.0579,0.012 0.12318,0.025 0.14518,0.03 0.0893,0.021 0.46525,-0.01 0.59442,-0.046 z"
       id="path3401"
       inkscape:connector-curvature="0" />
  </g>
</svg>
